/* XPM */
static char *ff57c7d9e8884275fbbeed7006ab0ead7qBCgct4YYOI7jn2[] = {
/* columns rows colors chars-per-pixel */
"32 32 152 2 ",
"   c #87CEEB",
".  c #87CEEB",
"X  c #87CEEB",
"o  c #87CEEB",
"O  c #87CEEB",
"+  c #87CEEB",
"@  c #1C1400",
"#  c #87CEEB",
"$  c #251900",
"%  c #281D00",
"&  c #2A2200",
"*  c #3A2D00",
"=  c #3E3300",
"-  c #413400",
";  c #493C0F",
":  c #4B4300",
">  c #594C00",
",  c #5A4C0D",
"<  c #54471A",
"1  c #655A18",
"2  c #6A610A",
"3  c #6C6112",
"4  c #67601A",
"5  c #6B611C",
"6  c #746E18",
"7  c #625922",
"8  c #6C6227",
"9  c #6D602B",
"0  c #766D2C",
"q  c #817732",
"w  c #9B8B3E",
"e  c #DCAA25",
"r  c #DFBE21",
"t  c #DFBB31",
"y  c #D2BF3C",
"u  c #E7BE26",
"i  c #EABE2A",
"p  c #D6C426",
"a  c #DBC32B",
"s  c #DDC531",
"d  c #DDC53D",
"f  c #E4CB30",
"g  c #E0CC39",
"h  c #F0C833",
"j  c #EED835",
"k  c #E8D03A",
"l  c #F4DC34",
"z  c #FBDC35",
"x  c #FDD43C",
"c  c #FDDB3C",
"v  c #96884B",
"b  c #998B4A",
"n  c #998A51",
"m  c #A99C4D",
"M  c #B3A356",
"N  c #BDB35C",
"B  c #BBB061",
"V  c #BEB568",
"C  c #C6B949",
"Z  c #DFBF44",
"A  c #C4B357",
"S  c #C9BA5D",
"D  c #C0B66E",
"F  c #D5C344",
"G  c #D8C343",
"H  c #DDCB45",
"J  c #D3C44D",
"K  c #DDC94B",
"L  c #D6C750",
"P  c #E7CB46",
"I  c #F2C744",
"U  c #FACA42",
"Y  c #F3C148",
"T  c #FECF4D",
"R  c #E1D24C",
"E  c #EDD04E",
"W  c #F6D641",
"Q  c #FFDE43",
"!  c #FED348",
"~  c #F2C957",
"^  c #EBD755",
"/  c #E6D55F",
"(  c #ECD259",
")  c #EFD95F",
"_  c #F2D754",
"`  c #FAD356",
"'  c #F6D852",
"]  c #FAD954",
"[  c #F3D25F",
"{  c #FDD559",
"}  c #F5D95B",
"|  c #FCDC59",
" . c #FFE546",
".. c #FDE54F",
"X. c #D5C566",
"o. c #D7CA64",
"O. c #DCCC65",
"+. c #DED765",
"@. c #CFC27E",
"#. c #D1C677",
"$. c #D9CC74",
"%. c #DFD674",
"&. c #EFCF62",
"*. c #FFCE67",
"=. c #ECD667",
"-. c #EBDA64",
";. c #EDD76A",
":. c #E7DC69",
">. c #EADC6F",
",. c #F0D763",
"<. c #FED363",
"1. c #F4DC62",
"2. c #FFDE66",
"3. c #ECD670",
"4. c #E7D871",
"5. c #ECDA75",
"6. c #E5D57E",
"7. c #E7DA7C",
"8. c #F7DC75",
"9. c #F9DE75",
"0. c #F6DF79",
"q. c #E9E069",
"w. c #F5E063",
"e. c #FEE360",
"r. c #FFEA6C",
"t. c #F7E275",
"y. c #FEE475",
"u. c #F5E973",
"i. c #F1E47B",
"p. c #FEE679",
"a. c #FFEE7D",
"s. c #FFF27A",
"d. c #CFC180",
"f. c #D1C281",
"g. c #DECD83",
"h. c #EDE082",
"j. c #F1E583",
"k. c #FEEF83",
"l. c #F6E38A",
"z. c #FFEB8F",
"x. c #FFF283",
"c. c #FFF08B",
"v. c #F0E095",
"b. c #F5E496",
"n. c #FBE993",
"m. c #FFE993",
"M. c #FBEB96",
"N. c #FBED95",
"B. c #FBEB96",
"V. c #F0E299",
"C. c #F0E19E",
"Z. c #FFF192",
/* pixels */
"X     X # #                         X X             X X X       ",
"        # X                         X X             X X X       ",
"        X X     X                   X X X           X X X       ",
"                X X       X         X X X X           X X       ",
"                X # X   X X           X X X                     ",
"                X # X X X X           X X X                     ",
"                X X X X     . .         X X                     ",
"                  X X . . . . . . . .                           ",
"                  .   . O % = = - $ O O                         ",
"                O . . . 9 d.V.g.g.C.v * o                     X ",
"    X X         . . < n v.n.l.z.m.l.n.g.1 @   .                 ",
"    X X       . . 8 f.b.z.3.0.c.8.9.;.O.l.D O                   ",
"    X X     . . @ B M.Z.=.,.p.&.[ Z _ G L j.0 .                 ",
"    X X     . . 5 h.5.p.( } a.<.{ t W ..H u.#.@ .   X X         ",
"      X     . . 3 i.t.,.E e.k.~ I h z l p R $.o . . X X         ",
"    X X     . . 2 :.s.1.' | p.<.T i z z j R S + .   X X         ",
"    X X       . 2 q.s.^ | ` y.*.<.e Q c f ^ A + . . X           ",
"    X X       . 6 +.a.w.P | x.<.Y U x Q s K $.. .   X           ",
"    X X       . 4 %.k.y.} | 2.` ! u c  .g -.M + . X X X         ",
"      X       . @ V N.5.) e.r.] W r  .a y 4., . . X X X X       ",
"      X   X X   . 7 @.M.x.K ^ d s k s P >.m O . X X X X         ",
"            X   . . ; b 7.C J F K F / O.> . .   X X X           ",
"            X X   . . O q N %.o.X.6.w * o .                     ",
"              X   . . . . & : = - * o o .   .                   ",
"X X             X X     . . . . . . . . X X                     ",
"X X               X X           .   X X X X                     ",
"# X               X   X X X X     X X X X X             X X X X ",
"X X                     X # X X     X X X             X X # X X ",
"X                       X # X X       X             X X # # X   ",
"        X X               X X                       X # # X     ",
"        X X                                         X X X       ",
"        # #                                         X X         "
};
