/* XPM */
static char *collect[] = {
/* columns rows colors chars-per-pixel */
"32 32 6 1",
"  c #2E2E2E",
". c #FFD700",
"X c #FFA500",
"o c #FF8C00",
"O c #FFFF00",
"+ c #F0E68C",
/* pixels */
"                                ",
"                                ",
"                                ",
"                                ",
"                                ",
"           .........            ",
"         .............          ",
"        ...............         ",
"       .................        ",
"      ...................       ",
"      ...................       ",
"     .....................      ",
"     ..OOOOOOOOOOOOOOOOO..      ",
"     ..O               O..      ",
"     ..O   XXXXXXXXXXX O..      ",
"     ..O   X         X O..      ",
"     ..O   X   oooo  X O..      ",
"     ..O   X  oooooo X O..      ",
"     ..O   X  oooooo X O..      ",
"     ..O   X   oooo  X O..      ",
"     ..O   X         X O..      ",
"     ..O   XXXXXXXXXXX O..      ",
"     ..O               O..      ",
"     ..OOOOOOOOOOOOOOOOO..      ",
"     .....................      ",
"      ...................       ",
"      ...................       ",
"       .................        ",
"        ...............         ",
"         .............          ",
"           .........            ",
"                                "
};
