/* XPM */
static char *_b4409e440c4490ab44929e59643d1c0HFKlScHGd7ZGNIW2[] = {
/* columns rows colors chars-per-pixel */
"32 32 240 2 ",
"   c #87CEEB",
".  c #17B100",
"X  c #17B101",
"o  c #18B300",
"O  c #18B100",
"+  c #18AE00",
"@  c #18B000",
"#  c #17B200",
"$  c #17B000",
"%  c #18AF00",
"&  c #18B200",
"*  c #17AD00",
"=  c #17AC00",
"-  c #17AB00",
";  c #17AE00",
":  c #17AF00",
">  c #17B201",
",  c #17B001",
"<  c #18B201",
"1  c #19B500",
"2  c #18B101",
"3  c #19B601",
"4  c #1DAD0B",
"5  c #174E00",
"6  c #185000",
"7  c #23BD0E",
"8  c #1AB005",
"9  c #18AA01",
"0  c #18A901",
"q  c #1EB806",
"w  c #18B401",
"e  c #18B301",
"r  c #18B501",
"t  c #17AF01",
"y  c #17A200",
"u  c #188F00",
"i  c #178D00",
"p  c #179D00",
"a  c #17A700",
"s  c #17A400",
"d  c #179800",
"f  c #178A00",
"g  c #178B00",
"h  c #188E00",
"j  c #179300",
"k  c #18B001",
"l  c #17B101",
"z  c #18B101",
"x  c #18B301",
"c  c #18B101",
"v  c #18AF01",
"b  c #18B201",
"n  c #17B001",
"m  c #18B001",
"M  c #18AE01",
"N  c #17AD01",
"B  c #17B101",
"V  c #18B101",
"C  c #18B202",
"Z  c #17B001",
"A  c #17B100",
"S  c #17B100",
"D  c #18B101",
"F  c #18B101",
"G  c #18B200",
"H  c #17B000",
"J  c #17B001",
"K  c #18B201",
"L  c #18B301",
"P  c #18B100",
"I  c #18B201",
"U  c #18B301",
"Y  c #18B300",
"T  c #18B201",
"R  c #18B300",
"E  c #18B500",
"W  c #19B501",
"Q  c #18B601",
"!  c #18A200",
"~  c #87CEEB",
"^  c #198D00",
"/  c #19A600",
"(  c #1ABB01",
")  c #185701",
"_  c #185500",
"`  c #185800",
"'  c #195A01",
"]  c #18AA01",
"[  c #18A900",
"{  c #18AA00",
"}  c #18A801",
"|  c #18B401",
" . c #18B300",
".. c #18B400",
"X. c #18B201",
"o. c #18B301",
"O. c #18B200",
"+. c #18B101",
"@. c #17B100",
"#. c #18B500",
"$. c #19B401",
"%. c #17B001",
"&. c #17B000",
"*. c #19B500",
"=. c #17AF01",
"-. c #17B101",
";. c #19B600",
":. c #19B501",
">. c #17B000",
",. c #18B200",
"<. c #17B002",
"1. c #17B001",
"2. c #17B101",
"3. c #18A301",
"4. c #188F01",
"5. c #188D01",
"6. c #179D01",
"7. c #17A601",
"8. c #178D01",
"9. c #17A401",
"0. c #179801",
"q. c #178B01",
"w. c #189401",
"e. c #17AD01",
"r. c #17B001",
"t. c #18B200",
"y. c #18B300",
"u. c #18A500",
"i. c #189600",
"p. c #189700",
"a. c #17B200",
"s. c #17B100",
"d. c #18A400",
"f. c #189B00",
"g. c #18AD00",
"h. c #179600",
"j. c #179500",
"k. c #18A000",
"l. c #18A100",
"z. c #188C00",
"x. c #188D00",
"c. c #18B400",
"v. c #189F00",
"b. c #189200",
"n. c #18AA00",
"m. c #189300",
"M. c #178C00",
"N. c #188E00",
"B. c #188F00",
"V. c #189C00",
"C. c #18B100",
"Z. c #18AB00",
"A. c #189400",
"S. c #178D00",
"D. c #189000",
"F. c #179800",
"G. c #17B000",
"H. c #178B00",
"J. c #179700",
"K. c #179F00",
"L. c #179100",
"P. c #17A900",
"I. c #178900",
"U. c #179E00",
"Y. c #179000",
"T. c #17A700",
"R. c #178A00",
"E. c #18B500",
"W. c #18A200",
"Q. c #17A000",
"!. c #17B400",
"~. c #18B600",
"^. c #17B300",
"/. c #17AA00",
"(. c #179300",
"). c #178E00",
"_. c #178800",
"`. c #177B00",
"'. c #176F00",
"]. c #177000",
"[. c #177D00",
"{. c #188900",
"}. c #177C00",
"|. c #177400",
" X c #188400",
".X c #187500",
"XX c #187200",
"oX c #187300",
"OX c #187B00",
"+X c #175500",
"@X c #175400",
"#X c #175200",
"$X c #174E00",
"%X c #174F00",
"&X c #185300",
"*X c #185700",
"=X c #185600",
"-X c #185500",
";X c #175300",
":X c #185400",
">X c #185200",
",X c #185000",
"<X c #185100",
"1X c #178400",
"2X c #178600",
"3X c #189800",
"4X c #18A800",
"5X c #18A900",
"6X c #178700",
"7X c #179D00",
"8X c #188A00",
"9X c #188800",
"0X c #18A700",
"qX c #17A600",
"wX c #189100",
"eX c #199800",
"rX c #19B200",
"tX c #17A100",
"yX c #17A800",
"uX c #189A00",
"iX c #199200",
"pX c #199900",
"aX c #189900",
"sX c #18A300",
"dX c #17A400",
"fX c #18B000",
"gX c #189500",
"hX c #179C00",
"jX c #178F00",
"kX c #17A500",
"lX c #18AF00",
"zX c #18A600",
"xX c #17AF00",
"cX c #17AD00",
"vX c #18AE00",
"bX c #189E00",
"nX c #199700",
"mX c #19B500",
"MX c #19B400",
"NX c white",
/* pixels */
"  . X . . o O + + @ # . . $ # # o @ % & % * = - - ; : . . > #   ",
"  , k l z x c v v c b c n n b b x c m x m M M N N v m B V C <   ",
"  X Z A t.y.u.i.p.u.a.s.s.s.t.y.y.d.f.g.f.i.h.j.j.p.k.s.S D X   ",
"  . F G t.y.l.z.x.k.a.s.s.y.c.y.y.v.b.n.m.M.M.M.N.B.V.C.S D .   ",
"  . F S t.y.l.x.N.l.t.t.y.y.y.y.y.v.b.Z.A.S.N.B.D.D.V.s.H J $   ",
"  . F S s.y.l.N.N.l.y.y.y.t.t.s.t.k.b.n.A.N.B.D.B.N.F.G.H J $   ",
"  & K S s.y.l.N.B.l.y.t.y.t.a.s.y.l.m.n.m.x.N.B.N.H.J.G.G L o   ",
"  < K P t.y.K.H.M.k.t.t.y.t.t.t.y.v.L.P.m.S.x.B.S.I.h.G.S I &   ",
"  o U Y t.y.k.S.M.U.a.t.y.y.c.c.t.U.Y.T.Y.M.S.N.M.R.J.G.G L o   ",
"  < T R c.E.W.S.S.Q.!.c.E.E.~.c.^.K.L./.(.N.B.B.).S.f.E.E W 1   ",
"  2 Q ! ~ _.`.'.].[.{.{.{.{.{.{._.}.|. X.XXXoXoXXXXXOX^ / ( 3   ",
"  4 5 ) _ +X@X#X$X%X&X*X=X+X-X+X;X%X:X>X,X<X<X,X%X<X=X` ' 6 7   ",
"  8 9 ] [ T.T.F.1X2X3XZ.4X4Xn.5XU.6X7XL.2X8X8X9X6XN.0X{ } 0 q   ",
"    w |  .s.s.Q.H.M.k.c.y.c.E.y.T.).qXF.H.B.wXB.wXeXrX..X.e     ",
"    e o.O.s.s.tXM.x.v.y.y.c.c.t.yXwX4XuXx.N.N.B.iXpXrX..o.e     ",
"    X +.@.s.s.W.x.N.v.t.t.t.t.a.yXwX0XaXH.M.M.x.B.i.C.#.$.w     ",
"    , %.&.s.t.sXN.x.7Xa.s.G.G.s.yXB.dXh.I.R.R.M.N.A.fX .X.&     ",
"    , %.&.t.y.sXN.S.7Xa.G.G.G.s.5X).dXh.R.R.M.N.B.gXfX#.| w     ",
"    X %.@.t.t.W.N.x.7Xa.s.s.G.a.yXS.dXh.I.H.N.wXD.gXC.*.$.r     ",
"    , %.&.s.a.tXS.H.hXs.t.t.G.s.yXjXkXh.I.H.N.wXN.m.fX..o.e     ",
"    , =.&.s.a.tXM.M.hXt.y.t.G.G.yXwXqXJ.H.M.B.B.N.m.lX..o.e     ",
"    t =.&.a.t.l.M.S.7Xt.y.s.G.s.5Xb.zXF.x.B.wXwXB.A.fX..o.e     ",
"    , %.@.t.y.W.N.N.U.s.s.xXxXs.5Xb.0Xf.B.B.B.B.M.L.cXO.X.<     ",
"    , %.@.t.c.W.N.x.7XG.xXxXG.a.5XwX0Xf.B.B.N.M.R.L.vX .X.<     ",
"    X -.@.t.y.W.x.x.7XG.s.s.s.t.5XD.zXuXN.B.S.R.R.L.lX .+.2     ",
"    X -.O.t.t.W.N.N.bXa.t.t.t.t.5XB.zXuXN.B.M.R.R.Y.vXO.+.2     ",
"    e o. .t.y.W.N.B.k.y.y.y.t.y.5XD.0Xf.N.N.M.H.M.m.fX..o.e     ",
"    < X.O.t.y.sXB.D.k.c.y.c.c.E.n.wX4XV.B.B.S.N.D.nXrX;.:.r     ",
"    X -.@.a.t.sXB.x.v.y.y.c.c.mXZ.b.5Xf.N.N.N.N.D.eXMX;.| w     ",
"    X -.>.s.s.W.N.M.7Xs.t.y.y.y.4XjXzXF.H.M.M.x.N.A.lX,.X.<     ",
"    , <.1.n 2.3.4.5.6.2.c x x 2.7.8.9.0.q.q.q.5.4.w.e.1.r.,     ",
"    , , $ $ . y u i p . . o o # a i s d f f g i h j * . X .     "
};
