/* XPM */
static char *player[] = {
/* columns rows colors chars-per-pixel */
"32 32 12 1",
"  c None",
". c #FFDBAC",
"X c #8B4513",
"o c #FF0000",
"O c #0000FF",
"+ c #32CD32",
"@ c #FFFF00",
"# c #000000",
"% c #FFFFFF",
"& c #FFB6C1",
"* c #B8860B",
"$ c #4169E1",
/* pixels */
"                                ",
"                                ",
"             oooooo             ",
"            oooooooo            ",
"           oooooooooo           ",
"          oo..o%%o..oo          ",
"         ooo.##..##.ooo         ",
"         oo.######.oo           ",
"        oo.########.oo          ",
"        ooo.######.ooo          ",
"        oooo.####.oooo          ",
"         oooo.%%.oooo           ",
"          oooooooooo            ",
"           ........             ",
"          ..........            ",
"         ............           ",
"        ..&......&..            ",
"        ..........              ",
"         ........               ",
"          ......                ",
"           OOOO                 ",
"          OOOOOO                ",
"         OO$$$$OO               ",
"        OO$$$$$$OO              ",
"        OO$$$$$$OO              ",
"        OO      OO              ",
"        OO   *  OO              ",
"       XXX   ** XXX             ",
"      XXXXX *** XXXXX           ",
"     XXXXXXX* *XXXXXXX          ",
"    XXXXXXX     XXXXXXX         ",
"                                "
};
