/* XPM */
static char *player[] = {
/* columns rows colors chars-per-pixel */
"32 32 8 1",
"  c None",
". c #FFDBAC",
"X c #8B4513",
"o c #FF6347",
"O c #4169E1",
"+ c #32CD32",
"@ c #FFD700",
"# c #000000",
/* pixels */
"                                ",
"                                ",
"                                ",
"            ........            ",
"           ..........           ",
"          ............          ",
"          .....##.....          ",
"          ....####....          ",
"          ....####....          ",
"          .....##.....          ",
"          ............          ",
"           ..........           ",
"            ........            ",
"              oooo              ",
"             oooooo             ",
"            oooooooo            ",
"           oooooooooo           ",
"           OOOOOOOOOO           ",
"           OOOOOOOOOO           ",
"           OOOOOOOOOO           ",
"           OOOOOOOOOO           ",
"            oooooooo            ",
"             oooooo             ",
"              ++++              ",
"              ++++              ",
"              ++++              ",
"              ++++              ",
"             @@@@@@             ",
"            @@@@@@@@            ",
"           @@@@  @@@@           ",
"          @@@@    @@@@          ",
"                                "
};
