/* XPM */
static char *wall[] = {
/* columns rows colors chars-per-pixel */
"32 32 8 1",
"  c #8B4513",
". c #A0522D",
"X c #CD853F",
"o c #FF6B47",
"+ c #FFB366",
"@ c #D2691E",
"# c #654321",
"$ c #8B7355",
/* pixels */
"oooooooooooooooooooooooooooooooo",
"o++++++++++++  +++++++++++++++ o",
"o+XXXXXXXXX    XXXXXXXXXXX+++  o",
"o+X.......      .........X+++  o",
"o+X.......        .......X+++  o",
"o+X......          ......X+++  o",
"o+X.....            .....X+++  o",
"o+X....              ....X+++  o",
"o+X...                ...X+++  o",
"o+X..                  ..X+++  o",
"o+X.                    .X+++  o",
"o+X                      X+++  o",
"o+X@@@@@@@@@@@@@@@@@@@@@@X+++  o",
"o+X@                    @X+++  o",
"o+X@                    @X+++  o",
"o##########################++  o",
"oooooooooooooooooooooooooooooooo",
"o++++++++++++  +++++++++++++++ o",
"o+XXXXXXXXX    XXXXXXXXXXX+++  o",
"o+X.......      .........X+++  o",
"o+X.......        .......X+++  o",
"o+X......          ......X+++  o",
"o+X.....            .....X+++  o",
"o+X....              ....X+++  o",
"o+X...                ...X+++  o",
"o+X..                  ..X+++  o",
"o+X.                    .X+++  o",
"o+X                      X+++  o",
"o+X@@@@@@@@@@@@@@@@@@@@@@X+++  o",
"o+X@                    @X+++  o",
"o+X@                    @X+++  o",
"o##########################++o  "
};
